<svg width="100" height="100" viewBox="0 0 100 100" fill="none" xmlns="http://www.w3.org/2000/svg">
<rect width="100" height="100" rx="10" fill="#008E97"/>
<path d="M47.1432 33.544C50.7913 33.544 53.9433 34.232 56.5993 35.608C59.2873 36.952 61.3353 38.888 62.7433 41.416C64.1833 43.944 64.9033 46.92 64.9033 50.344C64.9033 53.768 64.1833 56.744 62.7433 59.272C61.3353 61.768 59.2873 63.688 56.5993 65.032C53.9433 66.344 50.7913 67 47.1432 67H36.7273V33.544H47.1432ZM47.1432 63.4C51.4633 63.4 54.7593 62.264 57.0312 59.992C59.3033 57.688 60.4393 54.472 60.4393 50.344C60.4393 46.184 59.2873 42.936 56.9833 40.6C54.7113 38.264 51.4313 37.096 47.1432 37.096H41.0953V63.4H47.1432Z" fill="white"/>
</svg>
