<svg width="208" height="630" viewBox="0 0 208 630" fill="none" xmlns="http://www.w3.org/2000/svg">
<rect width="100" height="100" rx="5" fill="#008E97"/>
<path d="M47.1432 33.544C50.7913 33.544 53.9433 34.232 56.5993 35.608C59.2873 36.952 61.3353 38.888 62.7433 41.416C64.1833 43.944 64.9033 46.92 64.9033 50.344C64.9033 53.768 64.1833 56.744 62.7433 59.272C61.3353 61.768 59.2873 63.688 56.5993 65.032C53.9433 66.344 50.7913 67 47.1432 67H36.7273V33.544H47.1432ZM47.1432 63.4C51.4633 63.4 54.7593 62.264 57.0312 59.992C59.3033 57.688 60.4393 54.472 60.4393 50.344C60.4393 46.184 59.2873 42.936 56.9833 40.6C54.7113 38.264 51.4313 37.096 47.1432 37.096H41.0953V63.4H47.1432Z" fill="white"/>
<rect x="108" y="50" width="100" height="100" rx="5" fill="#F58220"/>
<path d="M160.158 83.544V117H155.79V83.544H160.158Z" fill="white"/>
<rect y="106" width="100" height="100" rx="5" fill="#F58220"/>
<path d="M50.2181 173.336C48.0101 173.336 46.0261 172.952 44.2661 172.184C42.5381 171.384 41.1781 170.296 40.1861 168.92C39.1941 167.512 38.6821 165.896 38.6501 164.072H43.3061C43.4661 165.64 44.1061 166.968 45.2261 168.056C46.3781 169.112 48.0421 169.64 50.2181 169.64C52.2981 169.64 53.9301 169.128 55.1141 168.104C56.3301 167.048 56.9381 165.704 56.9381 164.072C56.9381 162.792 56.5861 161.752 55.8821 160.952C55.1781 160.152 54.2981 159.544 53.2421 159.128C52.1861 158.712 50.7621 158.264 48.9701 157.784C46.7621 157.208 44.9861 156.632 43.6421 156.056C42.3301 155.48 41.1941 154.584 40.2341 153.368C39.3061 152.12 38.8421 150.456 38.8421 148.376C38.8421 146.552 39.3061 144.936 40.2341 143.528C41.1621 142.12 42.4581 141.032 44.1221 140.264C45.8181 139.496 47.7541 139.112 49.9301 139.112C53.0661 139.112 55.6261 139.896 57.6101 141.464C59.6261 143.032 60.7621 145.112 61.0181 147.704H56.2181C56.0581 146.424 55.3861 145.304 54.2021 144.344C53.0181 143.352 51.4501 142.856 49.4981 142.856C47.6741 142.856 46.1861 143.336 45.0341 144.296C43.8821 145.224 43.3061 146.536 43.3061 148.232C43.3061 149.448 43.6421 150.44 44.3141 151.208C45.0181 151.976 45.8661 152.568 46.8581 152.984C47.8821 153.368 49.3061 153.816 51.1301 154.328C53.3381 154.936 55.1141 155.544 56.4581 156.152C57.8021 156.728 58.9541 157.64 59.9141 158.888C60.8741 160.104 61.3541 161.768 61.3541 163.88C61.3541 165.512 60.9221 167.048 60.0581 168.488C59.1941 169.928 57.9141 171.096 56.2181 171.992C54.5221 172.888 52.5221 173.336 50.2181 173.336Z" fill="white"/>
<rect x="108" y="156" width="100" height="100" rx="5" fill="#008E97"/>
<path d="M141.525 206.248C141.525 202.984 142.261 200.056 143.733 197.464C145.205 194.84 147.205 192.792 149.733 191.32C152.293 189.848 155.125 189.112 158.229 189.112C161.877 189.112 165.061 189.992 167.781 191.752C170.501 193.512 172.485 196.008 173.733 199.24H168.501C167.573 197.224 166.229 195.672 164.469 194.584C162.741 193.496 160.661 192.952 158.229 192.952C155.893 192.952 153.797 193.496 151.941 194.584C150.085 195.672 148.629 197.224 147.573 199.24C146.517 201.224 145.989 203.56 145.989 206.248C145.989 208.904 146.517 211.24 147.573 213.256C148.629 215.24 150.085 216.776 151.941 217.864C153.797 218.952 155.893 219.496 158.229 219.496C160.661 219.496 162.741 218.968 164.469 217.912C166.229 216.824 167.573 215.272 168.501 213.256H173.733C172.485 216.456 170.501 218.936 167.781 220.696C165.061 222.424 161.877 223.288 158.229 223.288C155.125 223.288 152.293 222.568 149.733 221.128C147.205 219.656 145.205 217.624 143.733 215.032C142.261 212.44 141.525 209.512 141.525 206.248Z" fill="white"/>
<rect y="212" width="100" height="100" rx="5" fill="#008E97"/>
<path d="M49.9968 279.336C46.8928 279.336 44.0608 278.616 41.5008 277.176C38.9408 275.704 36.9088 273.672 35.4048 271.08C33.9328 268.456 33.1968 265.512 33.1968 262.248C33.1968 258.984 33.9328 256.056 35.4048 253.464C36.9088 250.84 38.9408 248.808 41.5008 247.368C44.0608 245.896 46.8928 245.16 49.9968 245.16C53.1328 245.16 55.9808 245.896 58.5408 247.368C61.1008 248.808 63.1168 250.824 64.5888 253.416C66.0608 256.008 66.7968 258.952 66.7968 262.248C66.7968 265.544 66.0608 268.488 64.5888 271.08C63.1168 273.672 61.1008 275.704 58.5408 277.176C55.9808 278.616 53.1328 279.336 49.9968 279.336ZM49.9968 275.544C52.3328 275.544 54.4288 275 56.2848 273.912C58.1728 272.824 59.6448 271.272 60.7008 269.256C61.7888 267.24 62.3328 264.904 62.3328 262.248C62.3328 259.56 61.7888 257.224 60.7008 255.24C59.6448 253.224 58.1888 251.672 56.3328 250.584C54.4768 249.496 52.3648 248.952 49.9968 248.952C47.6288 248.952 45.5168 249.496 43.6608 250.584C41.8048 251.672 40.3328 253.224 39.2448 255.24C38.1888 257.224 37.6608 259.56 37.6608 262.248C37.6608 264.904 38.1888 267.24 39.2448 269.256C40.3328 271.272 41.8048 272.824 43.6608 273.912C45.5488 275 47.6608 275.544 49.9968 275.544Z" fill="white"/>
<rect x="108" y="262" width="100" height="100" rx="5" fill="#F58220"/>
<path d="M173.125 295.544L160.501 329H155.461L142.837 295.544H147.493L158.005 324.392L168.517 295.544H173.125Z" fill="white"/>
<rect x="108" y="368" width="100" height="100" rx="5" fill="#008E97"/>
<path d="M164.71 435L156.742 421.32H151.462V435H147.094V401.544H157.894C160.422 401.544 162.55 401.976 164.278 402.84C166.038 403.704 167.35 404.872 168.214 406.344C169.078 407.816 169.51 409.496 169.51 411.384C169.51 413.688 168.838 415.72 167.494 417.48C166.182 419.24 164.198 420.408 161.542 420.984L169.942 435H164.71ZM151.462 417.816H157.894C160.262 417.816 162.038 417.24 163.222 416.088C164.406 414.904 164.998 413.336 164.998 411.384C164.998 409.4 164.406 407.864 163.222 406.776C162.07 405.688 160.294 405.144 157.894 405.144H151.462V417.816Z" fill="white"/>
<rect y="318" width="100" height="100" rx="5" fill="#F58220"/>
<path d="M45.7593 355.096V366.28H57.9513V369.88H45.7593V381.4H59.3913V385H41.3913V351.496H59.3913V355.096H45.7593Z" fill="white"/>
<rect y="424" width="100" height="100" rx="5" fill="#008E97"/>
<path d="M52.1578 457.544V491H47.7898V457.544H52.1578Z" fill="white"/>
<rect x="108" y="474" width="100" height="100" rx="5" fill="#F58220"/>
<path d="M171.125 541H166.757L149.189 514.36V541H144.821V507.496H149.189L166.757 534.088V507.496H171.125V541Z" fill="white"/>
<rect y="530" width="100" height="100" rx="5" fill="#F58220"/>
<path d="M60.3603 573.24C59.4323 571.288 58.0883 569.784 56.3283 568.728C54.5683 567.64 52.5203 567.096 50.1843 567.096C47.8483 567.096 45.7363 567.64 43.8483 568.728C41.9923 569.784 40.5203 571.32 39.4323 573.336C38.3763 575.32 37.8483 577.624 37.8483 580.248C37.8483 582.872 38.3763 585.176 39.4323 587.16C40.5203 589.144 41.9923 590.68 43.8483 591.768C45.7363 592.824 47.8483 593.352 50.1843 593.352C53.4483 593.352 56.1363 592.376 58.2483 590.424C60.3603 588.472 61.5923 585.832 61.9443 582.504H48.6003V578.952H66.6003V582.312C66.3443 585.064 65.4803 587.592 64.0083 589.896C62.5363 592.168 60.6003 593.976 58.2003 595.32C55.8003 596.632 53.1283 597.288 50.1843 597.288C47.0803 597.288 44.2483 596.568 41.6883 595.128C39.1283 593.656 37.0963 591.624 35.5923 589.032C34.1203 586.44 33.3843 583.512 33.3843 580.248C33.3843 576.984 34.1203 574.056 35.5923 571.464C37.0963 568.84 39.1283 566.808 41.6883 565.368C44.2483 563.896 47.0803 563.16 50.1843 563.16C53.7363 563.16 56.8723 564.04 59.5923 565.8C62.3443 567.56 64.3443 570.04 65.5923 573.24H60.3603Z" fill="white"/>
</svg>
